<svg xmlns="http://www.w3.org/2000/svg" viewBox="0 0 1280 320">
  <defs>
    <linearGradient id="bgGrad" x1="0%" y1="0%" x2="100%" y2="100%">
      <stop offset="0%" stop-color="#1a1a2e"/>
      <stop offset="50%" stop-color="#16213e"/>
      <stop offset="100%" stop-color="#0f3460"/>
    </linearGradient>
    <linearGradient id="accentGrad" x1="0%" y1="0%" x2="100%" y2="0%">
      <stop offset="0%" stop-color="#eab308"/>
      <stop offset="100%" stop-color="#ca8a04"/>
    </linearGradient>
    <linearGradient id="svgGrad" x1="0%" y1="0%" x2="100%" y2="100%">
      <stop offset="0%" stop-color="#eab308"/>
      <stop offset="100%" stop-color="#ca8a04"/>
    </linearGradient>
    <linearGradient id="cxGrad" x1="0%" y1="0%" x2="100%" y2="100%">
      <stop offset="0%" stop-color="#0078d4"/>
      <stop offset="100%" stop-color="#005a9e"/>
    </linearGradient>
  </defs>
  
  <rect width="1280" height="320" fill="url(#bgGrad)"/>
  <rect x="0" y="0" width="1280" height="4" fill="url(#accentGrad)"/>
  <rect x="0" y="316" width="1280" height="4" fill="url(#accentGrad)"/>
  
  <!-- SVG code/vector icon -->
  <g transform="translate(70, 60)">
    <!-- SVG badge -->
    <rect x="20" y="20" width="140" height="110" rx="8" fill="rgba(234,179,8,0.1)" stroke="#eab308" stroke-width="2"/>
    <text x="90" y="55" text-anchor="middle" font-family="Segoe UI, system-ui, sans-serif" font-size="28" font-weight="700" fill="url(#svgGrad)">SVG</text>
    <!-- Vector shapes -->
    <circle cx="55" cy="90" r="20" fill="none" stroke="#eab308" stroke-width="2"/>
    <rect x="85" y="75" width="30" height="30" fill="none" stroke="#eab308" stroke-width="2"/>
    <polygon points="140,105 125,75 155,75" fill="none" stroke="#eab308" stroke-width="2"/>
    <!-- Control points -->
    <circle cx="35" cy="90" r="4" fill="#eab308"/>
    <circle cx="75" cy="90" r="4" fill="#eab308"/>
    <circle cx="85" cy="75" r="4" fill="#eab308"/>
    <circle cx="115" cy="105" r="4" fill="#eab308"/>
  </g>
  
  <!-- Title -->
  <text x="260" y="145" font-family="Segoe UI, system-ui, sans-serif" font-size="64" font-weight="700" fill="#ffffff">
    SVG Toolkit
  </text>
  
  <!-- Subtitle -->
  <text x="262" y="195" font-family="Segoe UI, system-ui, sans-serif" font-size="24" fill="rgba(255,255,255,0.8)">
    Preview, Copy, and Convert SVG
  </text>
  
  <!-- Feature pills -->
  <g transform="translate(262, 230)">
    <rect x="0" y="0" width="100" height="32" rx="16" fill="rgba(234,179,8,0.2)" stroke="rgba(234,179,8,0.4)" stroke-width="1"/>
    <text x="50" y="21" text-anchor="middle" font-family="Segoe UI, system-ui, sans-serif" font-size="13" fill="#fde047">Preview</text>
    
    <rect x="115" y="0" width="100" height="32" rx="16" fill="rgba(234,179,8,0.2)" stroke="rgba(234,179,8,0.4)" stroke-width="1"/>
    <text x="165" y="21" text-anchor="middle" font-family="Segoe UI, system-ui, sans-serif" font-size="13" fill="#fde047">Data URI</text>
    
    <rect x="230" y="0" width="100" height="32" rx="16" fill="rgba(234,179,8,0.2)" stroke="rgba(234,179,8,0.4)" stroke-width="1"/>
    <text x="280" y="21" text-anchor="middle" font-family="Segoe UI, system-ui, sans-serif" font-size="13" fill="#fde047">Optimize</text>
  </g>
  
  <!-- Size badge -->
  <g transform="translate(1050, 120)">
    <rect x="0" y="0" width="160" height="80" rx="12" fill="rgba(234,179,8,0.15)" stroke="rgba(234,179,8,0.3)" stroke-width="1"/>
    <text x="80" y="35" text-anchor="middle" font-family="Segoe UI, system-ui, sans-serif" font-size="13" fill="rgba(255,255,255,0.6)">Format</text>
    <text x="80" y="58" text-anchor="middle" font-family="Segoe UI, system-ui, sans-serif" font-size="14" fill="#fde047">Clean • Minify</text>
  </g>
  

  <!-- CX Branding -->
  <g transform="translate(1115, 265)">
    <g transform="scale(0.9)">
      <path d="M16 2C8.268 2 2 8.268 2 16s6.268 14 14 14c3.866 0 7.389-1.568 9.928-4.1l-3.535-3.536A9.002 9.002 0 0116 25c-4.97 0-9-4.03-9-9s4.03-9 9-9c2.29 0 4.38.857 5.971 2.268l3.464-3.639C22.993 3.352 19.66 2 16 2z" fill="url(#cxGrad)"/>
      <path d="M20 10l-4 6 4 6h4l-4-6 4-6h-4z" fill="url(#cxGrad)"/>
      <path d="M24 10l4 6-4 6h4l4-6-4-6h-4z" fill="url(#cxGrad)" opacity="0.5"/>
    </g>
    <text x="30" y="16" font-family="Segoe UI, system-ui, sans-serif" font-size="16" fill="rgba(160,160,160,0.75)">CorreaX</text>
  </g>
</svg>
